<svg height="507pt" viewBox="0 -2 507.50014 507" width="507pt" xmlns="http://www.w3.org/2000/svg"><path d="m237.300781 196.722656c-1.871093-.003906-3.519531-1.226562-4.070312-3.011718-.550781-1.789063.128906-3.726563 1.671875-4.78125l34.722656-23.679688-17.960938 10.367188c-1.953124 1.121093-4.4375.53125-5.679687-1.34375s-.816406-4.394532.976563-5.753907l50.414062-37.949219-1.5625.90625c-1.882812 1.144532-4.328125.664063-5.644531-1.105468-1.3125-1.773438-1.058594-4.253906.585937-5.722656l43.117188-40.566407c-.300782-1.761719.527344-3.527343 2.074218-4.421875l7.21875-4.171875c1.886719-1.144531 4.332032-.667969 5.644532 1.105469 1.3125 1.769531 1.0625 4.25-.582032 5.722656l-24.882812 23.40625 30.472656-17.589844c1.949219-1.09375 4.414063-.496093 5.644532 1.371094 1.234374 1.863282.816406 4.363282-.953126 5.730469l-50.421874 37.957031 55.910156-32.28125c1.992187-1.179687 4.558594-.558594 5.789062 1.402344 1.230469 1.960938.671875 4.546875-1.257812 5.824219l-34.707032 23.671875 36.019532-20.804688c1.949218-1.152344 4.460937-.582031 5.71875 1.300782 1.257812 1.882812.828125 4.421874-.980469 5.78125l-49.625 38.050781 53.234375-30.71875c1.957031-1.140625 4.460938-.550781 5.707031 1.339843 1.246094 1.890626.796875 4.425782-1.023437 5.777344l-26.453125 19.675782 26.246093-15.15625c1.949219-1.109376 4.425782-.519532 5.667969 1.347656 1.238281 1.867187.824219 4.378906-.957031 5.746094l-13.992188 10.621093 13.003907-7.507812c1.925781-1.085938 4.359375-.519531 5.609375 1.300781 1.253906 1.820312.90625 4.296875-.796875 5.707031l-8.976563 7.261719 7.679688-4.449219c1.914062-1.089843 4.34375-.546875 5.609375 1.253907 1.265625 1.804687.949219 4.273437-.726563 5.703124l-1.792968 1.507813c1.589843-.261719 3.191406.390625 4.140624 1.691406.953126 1.304688 1.089844 3.027344.355469 4.464844l-5.042969 9.8125 1.773438-1.023437c2.039062-1.160157 4.632812-.457032 5.804688 1.574218 1.171874 2.03125.488281 4.628906-1.535157 5.8125l-14.335937 8.277344c-1.640625.945312-3.707032.695312-5.074219-.609375s-1.714844-3.355469-.847656-5.039063l5.03125-9.804687-26.707031 15.445313c-1.917969 1.117187-4.371094.582031-5.644532-1.234376-1.273437-1.816406-.941406-4.308593.761719-5.726562l.589844-.488281-12.910157 7.449219c-1.929687 1.113281-4.386718.550781-5.648437-1.28125-1.257813-1.835938-.894531-4.332032.835937-5.730469l9-7.289063-24.746093 14.300782c-1.949219 1.109374-4.421875.523437-5.664063-1.347657-1.242187-1.867187-.824218-4.375.953125-5.742187l13.996094-10.617188-30.675781 17.707032c-1.960938 1.140624-4.464844.550781-5.710938-1.339844-1.246094-1.894532-.796875-4.429688 1.023438-5.777344l26.410156-19.625-46.386719 26.785156c-1.949219 1.152344-4.457031.582032-5.714843-1.300781-1.261719-1.882813-.828126-4.421875.980468-5.78125l49.621094-38.050781-78.175781 45.132812c-.65625.367188-1.398438.546875-2.148438.53125zm0 0" fill="#ffc88b"/><path d="m187.679688 399.378906c-1.367188.003906-2.652344-.652344-3.457032-1.757812-.804687-1.105469-1.027344-2.53125-.605468-3.832032l3.105468-9.472656-18.566406 10.71875c-1.835938 1.0625-4.171875.613282-5.488281-1.050781-1.3125-1.664063-1.203125-4.039063.257812-5.578125l7.789063-8.21875-17.679688 10.242188c-1.855468 1.042968-4.199218.558593-5.488281-1.136719-1.289063-1.691407-1.132813-4.078125.367187-5.589844l19.855469-19.730469-32.980469 19.046875c-1.902343 1.109375-4.335937.585938-5.617187-1.203125-1.28125-1.792968-.988281-4.265625.675781-5.707031l28.367188-24.746094-40.003906 23.089844c-1.96875 1.128906-4.472657.523437-5.707032-1.378906-1.230468-1.902344-.761718-4.4375 1.070313-5.773438l9.875-7.125-14.40625 8.320313c-1.933594.964844-4.28125.328125-5.46875-1.476563-1.183594-1.804687-.832031-4.214843.820312-5.605469l18.585938-13.398437-23.894531 13.773437c-1.945313 1.117188-4.421876.539063-5.667969-1.324218-1.25-1.863282-.839844-4.375.933593-5.75l46.078126-35.429688-54.367188 31.378906c-1.964844 1.109376-4.457031.496094-5.683594-1.402343-1.222656-1.902344-.753906-4.425781 1.070313-5.757813l39.765625-28.519531-21.335938 12.3125c-1.972656 1.140625-4.492187.527344-5.722656-1.394531-1.230469-1.917969-.734375-4.460938 1.125-5.78125l31.453125-22.289063c-1.042969-.257812-1.953125-.886719-2.558594-1.773437-1.253906-1.863282-.847656-4.378906.929688-5.753906l31.574219-24.507813c-1.050782-.742187-1.710938-1.917969-1.796876-3.203125-.082031-1.28125.417969-2.535156 1.359376-3.410156l27.664062-25.691406c-.066406-1.59375.753906-3.089844 2.132812-3.882813l5.847657-3.414063c1.882812-1.09375 4.285156-.59375 5.574219 1.15625 1.292968 1.753907 1.058593 4.195313-.539063 5.671876l-7.160156 6.644531 2.140625-1.234375c1.945312-1.132813 4.433594-.5625 5.6875 1.304687 1.257812 1.863281.847656 4.386719-.933594 5.757813l-17.167969 13.390625 12.464844-7.203125c1.976563-1.136719 4.496094-.523438 5.726563 1.394531 1.226562 1.917969.734374 4.464844-1.125 5.78125l-21.410157 15.183594 16.835938-9.722657c1.96875-1.109374 4.460937-.496093 5.683593 1.402344 1.226563 1.902344.757813 4.425782-1.066406 5.757813l-39.785156 28.492187 35.152344-20.289062c1.941406-1.09375 4.398437-.507813 5.636718 1.347656 1.242188 1.851562.84375 4.347656-.910156 5.726562l-46.039062 35.402344 41.34375-23.890625c1.964844-1.101562 4.445312-.488281 5.667968 1.402344 1.226563 1.890625.769532 4.40625-1.042968 5.746094l-18.550782 13.382812 13.945313-8.058593c1.964844-1.128907 4.46875-.519532 5.703125 1.382812s.761719 4.4375-1.070312 5.769531l-9.917969 7.152344 5.308593-3.054687c1.898438-1.070313 4.300782-.539063 5.566407 1.234374 1.269531 1.773438.996093 4.21875-.632813 5.667969l-28.367187 24.746094 23.460937-13.542969c1.855469-1.042968 4.195313-.558594 5.484375 1.132813 1.289063 1.695312 1.132813 4.082031-.367187 5.59375l-19.839844 19.710937 14.746094-8.535156c1.839844-1.074219 4.1875-.628906 5.507812 1.042969 1.316406 1.671875 1.199219 4.0625-.277344 5.597656l-7.796874 8.191406 2.558593-1.5c1.53125-.890625 3.449219-.738281 4.824219.375s1.921875 2.960938 1.371094 4.640625l-3.429688 10.71875c1.328125.15625 2.503906.933594 3.164063 2.097656 1.175781 2.039063.476562 4.640626-1.558594 5.820313l-6.597656 3.824219c-.660157.378906-1.414063.578125-2.175781.570312zm0 0" fill="#ffc88b"/><path d="m220.636719 503.066406c-1.882813-.007812-3.539063-1.25-4.074219-3.054687-.53125-1.804688.179688-3.746094 1.75-4.777344l117.070312-76.195313-143.179687 82.621094c-2.015625 1.160156-4.589844.496094-5.789063-1.5-1.199218-1.992187-.578124-4.578125 1.394532-5.8125l71.105468-44.253906-86.578124 49.988281c-1.972657 1.136719-4.492188.523438-5.722657-1.394531s-.734375-4.464844 1.125-5.78125l30-21.222656-42.996093 24.8125c-1.972657 1.144531-4.488282.539062-5.726563-1.375-1.234375-1.914063-.75-4.457032 1.101563-5.785156l19.042968-13.652344-30.445312 17.5625c-1.929688 1.097656-4.378906.527344-5.628906-1.304688-1.253907-1.832031-.890626-4.320312.832031-5.71875l28.554687-22.835937-41.566406 23.980469c-1.929688 1.132812-4.410156.582031-5.675781-1.261719-1.269531-1.847657-.894531-4.355469.855469-5.753907l24.566406-19.882812-36.515625 21.078125c-1.921875 1.097656-4.367188.542969-5.625-1.28125-1.261719-1.824219-.914063-4.308594.796875-5.714844l21.828125-17.75-31.335938 18.105469c-1.902343 1.097656-4.328125.566406-5.601562-1.222656-1.273438-1.792969-.980469-4.257813.679687-5.695313l23.664063-20.523437-34.136719 19.710937c-1.949219 1.09375-4.414062.5-5.644531-1.367187-1.234375-1.867188-.816407-4.367188.953125-5.730469l5.664062-4.269531-10.597656 6.121094c-1.945312 1.101562-4.410156.511718-5.652344-1.347657-1.238281-1.863281-.832031-4.363281.933594-5.734375l7.554688-5.789062-11.792969 6.828125c-1.882813 1.078125-4.273438.574219-5.558594-1.171875s-1.054687-4.179688.53125-5.65625l23.371094-21.484375-32.503907 18.773437c-1.882812 1.125-4.3125.640625-5.621093-1.125-1.304688-1.761718-1.058594-4.230468.570312-5.703125l23.664063-22.1875-31.976563 18.398438c-1.9375 1.125-4.417969.554687-5.671875-1.304688-1.257812-1.859375-.855468-4.371093.910156-5.75l6.445313-5.027343-9.386719 5.410156c-1.878906 1.007812-4.207031.476562-5.464844-1.246094-1.253906-1.71875-1.050781-4.101562.480469-5.582031l20.625-18.542969-26.964843 15.53125c-1.867188 1.105469-4.265626.636719-5.578126-1.09375-1.308593-1.730469-1.113281-4.167969.457032-5.664062l40.507812-39.101563c-.40625-1.816406.417969-3.691406 2.03125-4.625l7.320313-4.265625c1.867187-1.105469 4.269531-.636719 5.578125 1.09375 1.3125 1.730469 1.113281 4.167969-.457032 5.664062l-24.082031 23.261719 32.222657-18.566406c1.878906-1.007813 4.207031-.476563 5.464843 1.242187 1.253907 1.722657 1.050781 4.101563-.480469 5.582032l-20.625 18.542968 27.085938-15.632812c1.9375-1.121094 4.417969-.550781 5.671875 1.308594 1.257813 1.859375.855469 4.371094-.910156 5.75l-6.476563 5.050781 11.007813-6.355469c1.882812-1.128906 4.3125-.640625 5.617187 1.121094 1.308594 1.765625 1.0625 4.234375-.566406 5.703125l-23.65625 22.171875 33.945312-19.628906c1.882813-1.074219 4.273438-.570313 5.558594 1.175781 1.285156 1.742187 1.054688 4.175781-.53125 5.652344l-23.371094 21.488281 35.207032-20.328125c1.949218-1.132813 4.449218-.554687 5.699218 1.324219s.820313 4.40625-.980468 5.765625l-7.550782 5.777343 14.164063-8.171874c1.949219-1.097657 4.414063-.5 5.648437 1.367187 1.230469 1.863281.816407 4.367187-.953124 5.730469l-5.675782 4.265625 12.339844-7.117188c1.902344-1.09375 4.328125-.5625 5.601562 1.226563 1.273438 1.792968.980469 4.253906-.679687 5.695312l-23.671875 20.523438 39.117188-22.519532c1.925781-1.097656 4.371093-.542968 5.628906 1.28125 1.257812 1.824219.910156 4.304688-.796875 5.714844l-21.898438 17.757813 37.15625-21.441407c1.925781-1.113281 4.386719-.554687 5.644531 1.28125 1.261719 1.835938.898438 4.332032-.832031 5.730469l-24.550781 19.867188 43.382812-25.046875c1.929688-1.117188 4.398438-.554688 5.65625 1.285156 1.261719 1.839844.890626 4.34375-.851562 5.738281l-28.578125 22.859375 55.636719-32.117187c1.96875-1.140625 4.488281-.535157 5.722656 1.375 1.238281 1.914062.753906 4.457031-1.097656 5.785156l-18.996094 13.652344 49.128906-28.355469c1.964844-1.097656 4.449219-.472656 5.664063 1.421875 1.21875 1.898437.75 4.414063-1.066407 5.746094l-29.984374 21.238281 229.542968-132.503906c2.023438-1.214844 4.648438-.558594 5.859375 1.460937 1.214844 2.023438.558594 4.644531-1.460937 5.859375l-71.109375 44.246094 58.546875-33.808594c2-1.117187 4.523437-.457031 5.71875 1.496094 1.195312 1.949219.636718 4.5-1.265625 5.773438l-117.09375 76.175781 98.046875-56.582031c2.007812-1.089844 4.511718-.40625 5.691406 1.550781 1.175781 1.953125.605469 4.488281-1.296875 5.75l-17.484375 10.949219 1.230469-.707032c1.992187-1.082031 4.480469-.421875 5.671875 1.507813 1.1875 1.929687.660156 4.453125-1.199219 5.746093l-43.941406 28.765626 18.679687-10.777344c1.96875-1.113282 4.460938-.496094 5.6875 1.402344 1.222656 1.898437.753906 4.421874-1.070312 5.757812l-42.667969 30.496094c1.472656.648437 2.453125 2.066406 2.539063 3.667968.089843 1.605469-.730469 3.121094-2.117188 3.925782l-57.746094 33.339844c-1.972656 1.160156-4.507812.554687-5.746094-1.367188-1.238281-1.925781-.742187-4.480469 1.128907-5.800781l27.996093-20.007813-74.410156 42.945313c-1.988281 1.058593-4.457031.386719-5.636718-1.53125-1.179688-1.917969-.664063-4.421875 1.175781-5.722657l43.902343-28.753906-71.628906 41.359375c-2.007812 1.125-4.550781.453125-5.738281-1.519531-1.191406-1.972656-.597656-4.535156 1.335937-5.785156l17.433594-10.9375-34.046875 19.625c-.640625.410156-1.375.640625-2.132812.664062zm0 0" fill="#f2a149"/><path d="m369.617188 369.09375c-1.847657-.003906-3.480469-1.199219-4.050782-2.957031-.566406-1.757813.0625-3.679688 1.558594-4.765625l54.84375-39.558594-24.148438 14c-1.953124 1.128906-4.449218.539062-5.691406-1.34375-1.246094-1.882812-.804687-4.40625 1-5.761719l44.066406-33-24.246093 13.988281c-1.933594 1.085938-4.378907.511719-5.621094-1.328124-1.246094-1.835938-.875-4.320313.851563-5.714844l41.992187-33.125-26.792969 15.429687c-1.933594 1.101563-4.386718.53125-5.640625-1.304687-1.253906-1.839844-.882812-4.332032.851563-5.726563l33.691406-26.71875-23.699219 13.652344c-1.96875 1.125-4.472656.511719-5.703125-1.398437-1.226562-1.910157-.742187-4.441407 1.097656-5.769532l5.382813-3.824218c-1.429687.046874-2.777344-.65625-3.566406-1.851563-1.25-1.835937-.878907-4.332031.855469-5.722656l28.160156-22.742188-21.242188 12.261719c-1.941406 1.125-4.417968.554688-5.675781-1.304688-1.253906-1.859374-.855469-4.375.914063-5.753906l20.0625-15.726562-14.121094 8.160156c-1.945313 1.160156-4.457032.597656-5.726563-1.28125-1.265625-1.878906-.839843-4.417969.964844-5.785156l16.417969-12.800782-11.460938 6.613282c-1.917968 1.371094-4.582031.925781-5.953125-.992188-1.367187-1.917968-.921875-4.585937.996094-5.953125l25.984375-22.101562-22.339844 12.894531c-1.898437 1.097656-4.316406.578125-5.597656-1.199219-1.28125-1.777343-1.011719-4.234375.628906-5.6875l28.109375-24.867187-25.105469 14.507812c-1.90625 1.132813-4.363281.613282-5.652343-1.191406-1.289063-1.804688-.980469-4.292969.710937-5.730469l23.46875-20.359375-22.015625 12.714844c-1.910156 1.097656-4.339843.566406-5.609375-1.230469-1.273437-1.792969-.972656-4.261719.691406-5.699219l21.71875-18.773437-20.15625 11.640625c-1.949218 1.109375-4.421874.519531-5.664062-1.347656-1.242188-1.867188-.824219-4.378906.953125-5.746094l1.828125-1.390625-.324219.199219c-1.914062 1.089844-4.34375.546875-5.609375-1.253906-1.265625-1.804688-.949218-4.273438.726563-5.703126l17.683593-14.949218-17.648437 10.179687c-1.882813 1.09375-4.285156.59375-5.578125-1.15625-1.289062-1.753906-1.058594-4.195312.542969-5.671875l24.457031-22.792968-25.824219 14.917968c-1.867187 1.125-4.285156.660156-5.601562-1.082031-1.316407-1.738281-1.109375-4.191406.484375-5.683594l25.199218-24.363281-28.921874 16.726562c-1.925782 1.125-4.394532.574219-5.664063-1.265624-1.265625-1.835938-.902344-4.339844.835937-5.742188l12.023438-9.832031-12.9375 7.46875c-1.929688 1.082031-4.371094.507812-5.613281-1.324219-1.246094-1.832031-.882813-4.308594.835937-5.707031l7.550782-5.972657-8.660157 4.992188c-1.867187 1.105469-4.265625.636719-5.578125-1.09375-1.308594-1.730469-1.113281-4.167969.457032-5.667969l24.003906-23.175781-29.867188 17.265625c-1.894531 1.09375-4.316406.578125-5.597656-1.199219s-1.007812-4.234375.632812-5.6875l19.234376-17.066406-20.480469 11.84375c-1.882813 1.109375-4.300781.617188-5.597657-1.140625-1.300781-1.757813-1.058593-4.214844.554688-5.6875l38.664062-36.214844c-.292968-1.753906.535157-3.503906 2.074219-4.394531l7.183594-4.171875c1.882813-1.128906 4.316406-.640625 5.621094 1.121094 1.304687 1.765625 1.058593 4.234375-.570313 5.703125l-20.128906 18.851562 24.960938-14.40625c1.894531-1.09375 4.316406-.578125 5.597656 1.199219s1.007812 4.234375-.632813 5.6875l-19.242187 17.066406 23.449218-13.550781c1.871094-1.125 4.289063-.65625 5.605469 1.082031 1.316407 1.742188 1.105469 4.195313-.484375 5.6875l-24.039062 23.175781 28.765625-16.632812c1.9375-1.132812 4.421875-.570312 5.683593 1.285156 1.261719 1.855469.871094 4.371094-.894531 5.757813l-7.554687 5.972656 8.332031-4.8125c1.925781-1.128906 4.394531-.578125 5.664063 1.261719 1.265624 1.835937.902343 4.339844-.835938 5.742187l-12.03125 9.839844 13.371094-7.722656c1.871094-1.125 4.285156-.660157 5.601562 1.082031 1.316406 1.738281 1.109375 4.191406-.480468 5.683594l-25.199219 24.371094 28.277343-16.316407c1.882813-1.109375 4.300782-.617187 5.597657 1.140625 1.300781 1.757813 1.0625 4.214844-.554688 5.6875l-24.453125 22.785156 26.570313-15.359374c1.914062-1.113282 4.363281-.578126 5.632812 1.234374 1.273438 1.808594.953125 4.292969-.742187 5.71875l-17.707032 14.957032 18.167969-10.484375c1.949219-1.109375 4.421875-.523438 5.664063 1.347656 1.242187 1.867187.824218 4.375-.953125 5.742187l-1.800781 1.367188c1.902343-1.078125 4.3125-.542969 5.578124 1.242188 1.265626 1.78125.980469 4.234374-.664062 5.675781l-21.707031 18.773437 21.410156-12.355468c1.902344-1.089844 4.320313-.5625 5.59375 1.222656s.988281 4.246094-.664063 5.6875l-23.472656 20.371094 23.039063-13.304688c1.894531-1.097656 4.316406-.578125 5.597656 1.199219 1.28125 1.777343 1.007813 4.234375-.632813 5.6875l-28.097656 24.917969 26.527344-15.316407c1.914062-1.109375 4.355469-.574219 5.625 1.230469 1.273438 1.808594.960938 4.285156-.726562 5.714844l-25.992188 22.066406 24.175781-13.960938c1.945313-1.160156 4.457031-.597656 5.722657 1.28125 1.265624 1.878907.84375 4.417969-.960938 5.785157l-16.417969 12.800781 12.980469-7.492188c1.9375-1.117187 4.40625-.546874 5.660156 1.304688s.863282 4.359375-.890625 5.742188l-20.046875 15.71875 16.214844-9.34375c1.929688-1.109376 4.386719-.550782 5.644531 1.285156 1.261719 1.835937.898438 4.328125-.832031 5.730468l-28.160156 22.742188 24.363281-14.074219c1.976563-1.175781 4.53125-.574219 5.773437 1.359375 1.242188 1.9375.726563 4.511719-1.167968 5.816406l-3.515625 2.492188c1.90625-.246094 3.738281.804688 4.484375 2.570312.75 1.769532.222656 3.820313-1.28125 5.007813l-33.664063 26.703125 27.6875-16c1.9375-1.089844 4.382813-.511719 5.625 1.324219 1.246094 1.835937.875 4.320312-.851562 5.714843l-42.003907 33.132813 34.894532-20.144531c1.953125-1.128906 4.449218-.539063 5.691406 1.34375 1.246094 1.882812.804688 4.410156-1 5.761718l-44.039062 33.027344 35.320312-20.386718c1.964844-1.101563 4.445312-.488282 5.667969 1.402343 1.222656 1.890625.765625 4.40625-1.042969 5.746094l-54.800781 39.527344 44.371093-25.597657c1.324219-.84375 3-.890624 4.371094-.125 1.367188.761719 2.207032 2.214844 2.183594 3.78125-.019531 1.566407-.898438 2.996094-2.285156 3.722657l-117.371094 67.753906c-.648438.371094-1.382812.558594-2.132812.546875zm0 0" fill="#f2a149"/><path d="m194.761719 398.203125c-1.765625 0-3.351563-1.089844-3.984375-2.742187-.632813-1.648438-.179688-3.519532 1.132812-4.699219l3.816406-3.414063c-1.589843.375-3.25-.199218-4.265624-1.476562-1.320313-1.636719-1.246094-3.992188.167968-5.546875l15.070313-16.570313-9.796875 5.65625c-1.847656 1.066406-4.199219.601563-5.503906-1.085937-1.308594-1.691407-1.164063-4.082031.335937-5.605469l11.089844-11.160156-5.910157 3.414062c-1.824218 1.046875-4.140624.609375-5.457031-1.03125-1.3125-1.640625-1.238281-3.996094.183594-5.550781l14.582031-15.871094-9.320312 5.378907c-1.839844 1.050781-4.175782.585937-5.480469-1.085938-1.300781-1.675781-1.175781-4.050781.292969-5.582031l11.863281-12.183594-6.691406 3.855469c-1.84375 1.050781-4.179688.585937-5.484375-1.089844-1.300782-1.675781-1.171875-4.054688.304687-5.582031l11.632813-11.945313-6.46875 3.734375c-1.804688 1.039063-4.09375.625-5.417969-.976562-1.328125-1.605469-1.300781-3.933594.058594-5.507813l16.671875-19.265625-11.332032 6.542969c-1.875 1.019531-4.21875.496094-5.480468-1.230469-1.261719-1.722656-1.050782-4.117187.488281-5.597656l3.851563-3.472656c-1.765626.40625-3.597657-.328125-4.59375-1.84375-1.230469-1.914063-.738282-4.464844 1.117187-5.785157l40.910156-29.097656-36.308593 20.957032c-1.972657 1.125-4.476563.511718-5.703126-1.398438-1.226562-1.90625-.746093-4.441406 1.09375-5.769531l19.160157-13.652344-14.566407 8.414063c-1.914062 1.09375-4.34375.550781-5.609374-1.253907-1.265626-1.804687-.953126-4.273437.726562-5.699219l26.554688-22.351562-21.691407 12.519531c-1.871093 1.144531-4.308593.683594-5.628906-1.066406-1.324219-1.75-1.105469-4.222656.507813-5.707031l27.0625-26.046875c-.875-1.992188-.109376-4.320313 1.773437-5.410157l10.042969-5.800781c1.871094-1.125 4.289062-.660156 5.605468 1.082031 1.316407 1.738282 1.105469 4.191407-.484374 5.683594l-12.945313 12.382813 33.28125-19.21875c1.910156-1.089844 4.34375-.546875 5.609375 1.253906 1.265625 1.804687.949219 4.273437-.730469 5.703125l-26.546875 22.332031 50.832032-29.339843c1.972656-1.15625 4.507812-.550782 5.75 1.371093 1.238281 1.921875.738281 4.480469-1.132813 5.796875l-19.132813 13.636719 36.0625-20.820313c1.972657-1.125 4.476563-.511718 5.703126 1.398438 1.226562 1.910156.746093 4.441406-1.09375 5.769531l-79.640626 56.667969c.882813 1.722656.5 3.824219-.941406 5.121094l-3.839844 3.464844c1.808594-.457032 3.707032.3125 4.683594 1.902343.980469 1.585938.808594 3.628907-.414062 5.035157l-16.710938 19.234374 11.394532-6.570312c1.84375-1.066406 4.191406-.605469 5.5 1.078125 1.308593 1.679687 1.171874 4.070313-.3125 5.59375l-11.648438 11.949219 6.527344-3.765625c1.84375-1.0625 4.1875-.605469 5.496094 1.074219 1.3125 1.675781 1.183593 4.0625-.296876 5.589843l-11.855468 12.167969 6.714844-3.871094c1.824218-1.046875 4.140624-.609375 5.457031 1.03125 1.3125 1.640625 1.238281 3.996094-.179688 5.546875l-14.585937 15.871094 9.386718-5.410156c1.847657-1.050781 4.191407-.582031 5.488282 1.101562 1.300781 1.683594 1.160156 4.066407-.324219 5.589844l-11.070313 11.101563 5.976563-3.414063c1.820313-1.046875 4.128906-.613281 5.449219 1.019531 1.316406 1.636719 1.25 3.988282-.160156 5.542969l-15.078126 16.570313 9.855469-5.691407c1.875-1.003906 4.207031-.476562 5.464844 1.246094 1.253906 1.71875 1.050781 4.101563-.480469 5.582031l-3.804687 3.414063c1.835937-.429688 3.734375.386719 4.691406 2.011719 1.179687 2.042968.480469 4.652343-1.5625 5.828124l-33.621094 19.464844c-.644531.378906-1.382812.578125-2.132812.574219zm0 0" fill="#fab153"/><path d="m209.585938 435.007812c-1.671876-.003906-3.1875-.976562-3.878907-2.496093-.695312-1.515625-.441406-3.300781.652344-4.5625l14.414063-16.648438-36.386719 21c-1.878907 1.019531-4.222657.492188-5.480469-1.230469-1.261719-1.726562-1.054688-4.117187.488281-5.597656l16.007813-14.429687-30.421875 17.570312c-1.851563 1.066407-4.207031.601563-5.511719-1.089843-1.304688-1.691407-1.152344-4.089844.347656-5.609376l6.128906-6.152343-16.027343 9.25c-1.824219 1.050781-4.144531.605469-5.457031-1.039063-1.3125-1.648437-1.226563-4.007812.203124-5.554687l6.5-7-15.195312 8.730469c-1.824219 1.0625-4.152344.628906-5.472656-1.015626-1.320313-1.648437-1.238282-4.011718.1875-5.5625l5.746094-6.261718-13.160157 7.585937c-1.699219.964844-3.835937.652344-5.191406-.757812-1.351563-1.410157-1.570313-3.5625-.535156-5.21875l8.472656-13.242188-19.285156 11.09375c-1.742188.996094-3.941407.640625-5.285157-.847656-1.34375-1.492187-1.464843-3.71875-.292968-5.347656l7.679687-10.625-15.222656 8.789062c-1.6875.972657-3.820313.683594-5.179687-.707031-1.367188-1.390625-1.617188-3.53125-.605469-5.195312l8.472656-13.996094-17.210937 9.984375c-1.847657 1.0625-4.195313.605469-5.503907-1.078125-1.304687-1.679688-1.171875-4.070313.3125-5.59375l1.707031-1.769532-3.957031 2.289063c-1.734375.992187-3.929687.652344-5.277343-.824219-1.347657-1.476562-1.488282-3.691406-.339844-5.328125l7.972656-11.316406-13.816406 7.980469c-1.804688 1.035156-4.097656.621094-5.421875-.988282-1.324219-1.605468-1.292969-3.933593.070312-5.507812l14.351563-16.519531c-.988282-2.019531-.242188-4.460938 1.707031-5.582031l6.972656-4.027344c1.804688-1.039063 4.097657-.621094 5.421875.984375 1.324219 1.609375 1.292969 3.9375-.070312 5.511719l-5.214844 5.972656 8.535156-4.933594c1.734375-.996094 3.925782-.652344 5.273438.824219 1.347656 1.476562 1.488281 3.691406.339844 5.328125l-7.96875 11.308594 13.761718-7.945313c1.847656-1.078125 4.207032-.625 5.519532 1.0625s1.175781 4.085937-.320313 5.609375l-1.707031 1.765625 5.027344-2.898437c1.683593-.972657 3.8125-.679688 5.171874.707031 1.363282 1.386719 1.613282 3.519531.613282 5.1875l-8.464844 14.003906 18.21875-10.539063c1.742188-1.011718 3.960938-.664062 5.308594.835938 1.351562 1.496094 1.46875 3.738281.277344 5.367188l-7.679688 10.625 17.066406-9.855469c1.699219-.96875 3.839844-.65625 5.191406.753906 1.351563 1.410156 1.574219 3.5625.535157 5.21875l-8.472657 13.25 21.9375-12.671875c1.828126-1.070312 4.160157-.644531 5.488282 1.007812 1.328125 1.648438 1.242187 4.019532-.195313 5.574219l-5.742187 6.261719 15.71875-9.0625c1.824218-1.035156 4.128906-.589844 5.4375 1.050781s1.230468 3.988281-.183594 5.539063l-6.492188 7.003906 19.34375-11.167969c1.847657-1.003906 4.152344-.515625 5.425782 1.15625 1.277344 1.671875 1.148437 4.023438-.304688 5.539063l-6.117187 6.144531 37.742187-21.792969c1.875-1.019531 4.21875-.492187 5.480469 1.230469 1.261719 1.726563 1.050781 4.117187-.488281 5.597656l-16.035156 14.4375 23.210937-13.269531c1.804687-1.039062 4.09375-.625 5.417969.980469 1.324218 1.601562 1.300781 3.929687-.058594 5.503906l-14.414062 16.640625 171.265624-98.875c1.996094-1.160156 4.550782-.519531 5.765626 1.445312 1.214843 1.964844.648437 4.535157-1.277344 5.808594l-49.5625 32.808594 31.085937-17.917969c1.941407-1.125 4.421875-.554687 5.675781 1.304688 1.253907 1.859375.855469 4.371093-.914062 5.75l-45.695312 35.585937c1.980468-.136718 3.792968 1.105469 4.375 3.003906.582031 1.894532-.21875 3.941407-1.933594 4.941407l-49.1875 28.414062c-1.945313 1.160157-4.457032.597657-5.722656-1.28125-1.265626-1.875-.84375-4.417969.960937-5.785156l43.300781-33.714844-98.085937 56.570313c-1.996094 1.15625-4.550781.515625-5.765625-1.449219-1.214844-1.960937-.648438-4.535156 1.277344-5.804687l49.496093-32.769532-72.746093 41.984375c-.644532.378907-1.378907.578125-2.125.582031zm0 0" fill="#fab153"/><path d="m327.96875 354.023438c-1.554688 0-2.988281-.84375-3.738281-2.207032-.753907-1.359375-.703125-3.023437.128906-4.335937l8.957031-14.226563-14.898437 8.601563c-1.753907 1.015625-3.976563.65625-5.324219-.855469-1.347656-1.515625-1.441406-3.765625-.230469-5.390625l7.757813-10.410156-11.949219 6.910156c-1.714844.988281-3.886719.667969-5.238281-.777344-1.355469-1.445312-1.539063-3.628906-.441406-5.28125l8.695312-13.027343-14.046875 8.105468c-1.839844 1.0625-4.175781.613282-5.488281-1.054687-1.3125-1.671875-1.199219-4.050781.265625-5.585938l2.378906-2.480469-4 2.300782c-1.847656 1.066406-4.199219.605468-5.503906-1.078125-1.308594-1.6875-1.167969-4.078125.324219-5.601563l1.441406-1.46875-2.824219 1.628906c-1.738281 1-3.941406.652344-5.285156-.832031-1.347657-1.488281-1.476563-3.710937-.3125-5.34375l8.148437-11.382812-12.800781 7.371093c-1.839844 1.050782-4.171875.589844-5.476563-1.078124-1.304687-1.671876-1.183593-4.046876.28125-5.578126l1.9375-2.003906-3.414062 1.988282c-1.820312 1.035156-4.125.59375-5.4375-1.039063-1.308594-1.632813-1.242188-3.976563.164062-5.53125l3.636719-4.011719-5.753906 3.320313c-1.699219.984375-3.851563.679687-5.210937-.738281-1.363282-1.414063-1.582032-3.574219-.53125-5.234376l8.992187-14.261718-14.921875 8.609375c-1.753906 1.007812-3.96875.648437-5.3125-.859375-1.34375-1.507813-1.445312-3.753906-.242188-5.375l7.773438-10.445313-12.015625 6.9375c-1.855469 1.140625-4.273437.703125-5.609375-1.015625s-1.160156-4.167968.402344-5.683594l1.792968-1.84375-3.25 1.878907c-2.039062 1.15625-4.632812.453125-5.804687-1.578125s-.484375-4.628906 1.535156-5.8125l29.867188-17.253906c1.847656-1.066407 4.195312-.605469 5.5 1.074218 1.308593 1.683594 1.175781 4.070313-.308594 5.597656l-1.800781 1.851563 3.265625-1.886719c1.753906-1.003906 3.96875-.644531 5.3125.863282 1.34375 1.507812 1.445312 3.75.242187 5.375l-7.773437 10.453124 12.015625-6.9375c1.699218-.984374 3.851562-.679687 5.214844.738282 1.359374 1.414062 1.578124 3.574218.527343 5.234375l-9 14.261719 14.976563-8.601563c1.824218-1.0625 4.148437-.628906 5.46875 1.015625 1.320312 1.648438 1.242187 4.011719-.1875 5.5625l-3.714844 4.035156 5.761719-3.320312c1.84375-1.0625 4.1875-.605469 5.496093 1.074218 1.308594 1.675782 1.183594 4.0625-.300781 5.59375l-1.925781 1.988282 3.414062-1.972656c1.734376-.992188 3.929688-.644532 5.273438.839843 1.34375 1.480469 1.476562 3.695313.324219 5.328125l-8.152344 11.386719 12.800781-7.375c1.847656-1.066406 4.199219-.601563 5.503906 1.082031 1.308594 1.683594 1.167969 4.078125-.324218 5.601563l-1.433594 1.457031 2.808594-1.613281c1.835937-1.046875 4.164062-.59375 5.472656 1.070312 1.304688 1.664063 1.195312 4.035157-.257812 5.570313l-2.382813 2.492187 4.019531-2.320312c1.71875-.996094 3.890625-.671875 5.25.773437 1.351563 1.449219 1.53125 3.636719.433594 5.285156l-8.703125 13.027344 14.042969-8.097656c1.753906-1.003906 3.96875-.644531 5.3125.863281 1.34375 1.507813 1.445312 3.75.246094 5.375l-7.757813 10.417969 11.945313-6.917969c1.699218-.984375 3.851562-.679687 5.214843.734375 1.359375 1.417969 1.578125 3.578125.527344 5.238282l-8.96875 14.199218 69.054687-39.859375c2.039063-1.160156 4.628907-.457031 5.800782 1.574219 1.175781 2.03125.488281 4.628906-1.535156 5.816406l-84.027344 48.503906c-.632813.371094-1.355469.574219-2.089844.578126zm0 0" fill="#fab153"/><path d="m358.59375 330.371094c-1.800781-.003906-3.40625-1.136719-4.011719-2.832032-.605469-1.691406-.082031-3.585937 1.304688-4.730468l24.132812-19.847656-2.515625 1.449218c-1.917968 1.089844-4.351562.535156-5.609375-1.277344-1.257812-1.8125-.929687-4.285156.761719-5.703124l12.484375-10.253907c-1.5625.269531-3.140625-.359375-4.085937-1.632812-1.300782-1.707031-1.125-4.117188.40625-5.621094l21.746093-21.335937-8.867187 5.121093c-1.84375 1.078125-4.199219.625-5.515625-1.058593-1.3125-1.679688-1.183594-4.078126.308593-5.605469l18.125-18.679688-9.113281 5.265625c-1.859375 1.074219-4.230469.59375-5.527343-1.117187-1.300782-1.710938-1.125-4.121094.410156-5.625l11.945312-11.75-8.566406 4.863281c-1.855469 1.074219-4.21875.601562-5.523438-1.101562-1.300781-1.699219-1.140624-4.101563.375-5.613282l13.484376-13.441406-34.917969 20.15625c-1.925781 1.105469-4.378907.546875-5.636719-1.28125-1.261719-1.828125-.90625-4.320312.816406-5.722656l20.316406-16.496094-40.703124 23.5c-1.8125 1.039062-4.105469.613281-5.425782-1.003906-1.320312-1.613282-1.277344-3.949219.101563-5.515625l12.335937-13.925781-35.421875 20.480468c-1.84375 1.0625-4.1875.605469-5.496093-1.070312-1.308594-1.679688-1.179688-4.066406.300781-5.59375l11.144531-11.484375-31.445312 18.113281c-1.769532 1.023438-4.015626.648438-5.355469-.894531-1.339844-1.542969-1.398438-3.816407-.140625-5.425781l12.484375-15.960938-38.578125 22.28125c-1.320313.777344-2.957032.78125-4.285156.019531-1.324219-.761719-2.144532-2.175781-2.140626-3.707031.003907-1.53125.828126-2.945312 2.160157-3.703125l57.632812-33.277344c1.773438-1.003906 4.007813-.628906 5.359375.894531 1.335938 1.546876 1.390625 3.820313.128906 5.429688l-12.484374 15.964844 38.875-22.453125c1.84375-1.0625 4.191406-.605469 5.5 1.074219 1.308593 1.675781 1.179687 4.0625-.300782 5.589843l-11.09375 11.488281 31.65625-18.277343c1.8125-1.039063 4.105469-.613281 5.425782 1 1.320312 1.617187 1.277343 3.949219-.097657 5.515625l-12.375 13.960937 64.5625-37.273437c1.925781-1.101563 4.378907-.546875 5.636719 1.285156 1.261719 1.828125.90625 4.316406-.816406 5.722656l-20.316406 16.496094 16.589843-9.574219c1.851563-1.03125 4.179688-.546875 5.464844 1.140625s1.136719 4.058594-.34375 5.574219l-13.484375 13.4375 9.488281-5.476563c1.863281-1.074218 4.230469-.597656 5.53125 1.113282 1.296875 1.710937 1.121094 4.121094-.410156 5.628906l-11.945313 11.742188 6.484376-3.738282c1.84375-1.066406 4.1875-.605468 5.496093 1.070313 1.308594 1.679687 1.179688 4.066406-.300781 5.59375l-18.125 18.6875 11.410156-6.585938c1.859375-1.058593 4.210938-.578125 5.507813 1.125 1.292969 1.699219 1.128906 4.097657-.386719 5.605469l-21.734375 21.335938 12.746094-7.367188c1.925781-1.113281 4.378906-.5625 5.644531 1.261719s.921875 4.316406-.796875 5.726562l-11.246094 9.285157 2.78125-1.59375c1.917969-1.070313 4.335938-.511719 5.585938 1.292968 1.25 1.804688.929687 4.265625-.746094 5.6875l-24.089844 19.839844 11.886719-6.828125c2.023438-1.058594 4.527344-.335937 5.671875 1.644531 1.144531 1.980469.523437 4.511719-1.40625 5.738282l-56.695313 32.722656c-.652343.363281-1.386718.546875-2.132812.53125zm0 0" fill="#fab153"/><path d="m398.042969 194.597656c-1.664063 0-3.179688-.96875-3.875-2.484375-.699219-1.511719-.449219-3.292969.632812-4.558593l11.425781-13.34375-8.644531 4.992187c-1.78125 1.023437-4.039062.636719-5.375-.921875-1.332031-1.5625-1.367187-3.855469-.078125-5.453125l12.1875-15.128906-9.679687 5.589843c-1.773438 1.027344-4.03125.644532-5.371094-.910156-1.339844-1.558594-1.378906-3.847656-.097656-5.449218l10.15625-12.75-9.617188 5.609374c-1.785156 1.03125-4.050781.636719-5.386719-.929687-1.332031-1.570313-1.359374-3.867187-.058593-5.464844l9.320312-11.527343-8.535156 4.949218c-1.816406 1.046875-4.121094.625-5.445313-1.003906-1.320312-1.625-1.265624-3.96875.128907-5.53125l6.167969-6.9375-5.972657 3.464844c-1.851562 1.027344-4.179687.542968-5.464843-1.144532-1.285157-1.683593-1.136719-4.058593.347656-5.574218l1.421875-1.421875-.742188.425781c-1.730469.996094-3.921875.65625-5.273437-.816406-1.347656-1.476563-1.496094-3.691406-.347656-5.328125l9.667968-13.773438-11.683594 6.742188c-1.769531 1.011719-4.011718.625-5.34375-.917969-1.332031-1.546875-1.382812-3.816406-.125-5.421875l7.210938-9.121094-10.035156 5.792969c-1.78125 1.035156-4.050782.648438-5.390625-.917969-1.335938-1.566406-1.363281-3.867187-.0625-5.464843l6.824219-8.449219-9.511719 5.488281c-1.746094 1.003906-3.953125.648438-5.300781-.847656-1.34375-1.496094-1.460938-3.726563-.28125-5.355469l13.175781-18.125c-.226563-.238281-.421875-.5-.582031-.785156-1.179688-2.039063-.484376-4.648438 1.554687-5.828125l7.390625-4.269532c1.742188-1 3.953125-.648437 5.296875.847657 1.347656 1.496093 1.464844 3.730469.28125 5.359375l-8.421875 11.578125 12.074219-6.945313c1.785156-1.027344 4.042969-.636718 5.375.929688 1.335937 1.5625 1.363281 3.855468.070312 5.453125l-6.824219 8.457031 9.445313-5.453125c1.773437-1.03125 4.03125-.652344 5.371094.902344 1.339843 1.554687 1.386719 3.839843.105469 5.445312l-7.21875 9.113281 9.054687-5.230468c1.734375-1.011719 3.941406-.679688 5.300781.804687 1.355469 1.480469 1.492188 3.710938.332032 5.347657l-9.746094 13.765624 12.015625-6.9375c1.851562-1.03125 4.179687-.542968 5.464843 1.140626 1.285157 1.6875 1.136719 4.058593-.34375 5.574218l-1.433593 1.433594.953125-.546875c1.8125-1.035156 4.109375-.609375 5.425781 1.011719 1.320313 1.617187 1.273437 3.953125-.109375 5.515625l-6.175781 6.9375 5.664062-3.265625c1.78125-1.027344 4.042969-.636719 5.375.925781 1.335938 1.566406 1.363281 3.859375.070313 5.457031l-9.320313 11.460938 9.097657-5.25c1.773437-1.007813 4.015624-.621094 5.34375.925781 1.332031 1.546875 1.378906 3.820313.117187 5.421875l-10.128906 12.792969 9.96875-5.761719c1.777343-1.023438 4.035156-.636719 5.371093.925781 1.335938 1.558594 1.371094 3.851563.082032 5.449219l-12.1875 15.128906 10.429687-6.023437c1.796875-1.039063 4.085938-.628907 5.414063.96875 1.328125 1.597656 1.3125 3.921875-.039063 5.5l-11.433593 13.347656 9.496093-5.480469c2.042969-1.175781 4.652344-.476562 5.832031 1.566406 1.179688 2.042969.476563 4.65625-1.566406 5.832032l-31.078125 17.921875c-.648437.367187-1.386719.558593-2.132812.554687zm0 0" fill="#fab153"/><path d="m228.640625 398.5c-1.835937 0-3.46875-1.175781-4.050781-2.917969-.578125-1.742187.019531-3.660156 1.488281-4.761719l27.613281-20.992187-22.917968 13.226563c-1.925782 1.105468-4.378907.546874-5.636719-1.28125-1.261719-1.832032-.90625-4.320313.816406-5.722657l28.472656-23.042969-23.652343 13.65625c-1.898438 1.09375-4.316407.578126-5.597657-1.199218s-1.007812-4.234375.628907-5.6875l27.847656-24.746094-22.878906 13.214844c-1.910157 1.125-4.363282.597656-5.644532-1.210938s-.964844-4.296875.730469-5.726562l15.023437-12.796875-10.109374 5.835937c-1.921876 1.09375-4.359376.539063-5.621094-1.28125-1.257813-1.816406-.917969-4.296875.78125-5.707031l3.78125-3.097656c-1.929688.511719-3.960938-.386719-4.878906-2.15625-.921876-1.773438-.492188-3.949219 1.039062-5.234375l2.996094-2.5625c-1.410156.101562-2.769532-.515625-3.621094-1.644532-1.300781-1.695312-1.152344-4.089843.351562-5.605468l6.765626-6.828125-1.59375.921875c-1.765626 1.015625-4 .644531-5.339844-.886719-1.34375-1.53125-1.414063-3.796875-.171875-5.410156l6.78125-8.738281-1.269531.734374c-1.550782.902344-3.496094.742188-4.878907-.402343-1.378906-1.144531-1.894531-3.03125-1.292969-4.71875l4.574219-13.117188c-1.027343.144531-2.070312-.101562-2.925781-.691406-1.355469-.910156-2.070312-2.511719-1.84375-4.128906l.980469-7.039063c-.167969-.195312-.316407-.40625-.441407-.632812-1.179687-2.039063-.480468-4.648438 1.5625-5.828125l1.558594-.902344c1.410156-.8125 3.15625-.753906 4.507813.152344 1.351562.90625 2.066406 2.5 1.851562 4.113281l-.367187 2.644531.621094-.359375c1.550781-.898437 3.492187-.734375 4.871093.410156 1.375 1.144532 1.890625 3.023438 1.292969 4.710938l-4.40625 12.636719 10.15625-5.863281c1.765625-1.023438 4.011719-.652344 5.355469.882812 1.34375 1.539062 1.410156 3.8125.15625 5.425781l-6.785157 8.761719 10.371094-5.972656c1.851563-1.082032 4.21875-.621094 5.527344 1.078125s1.15625 4.105469-.359375 5.621093l-6.765625 6.828126 9.609375-5.539063c1.914063-1.113281 4.359375-.574219 5.632813 1.234375 1.273437 1.8125.949218 4.296875-.742188 5.71875l-1.015625.855469 2.515625-1.453125c1.925781-1.097656 4.371094-.539063 5.628906 1.28125 1.257813 1.824218.910156 4.308594-.796875 5.71875l-3.046875 2.492187 4.898438-2.824219c1.90625-1.105468 4.34375-.570312 5.617187 1.230469 1.273438 1.796875.964844 4.273438-.710937 5.707031l-15.011719 12.796876 18.960937-10.945313c1.894532-1.078125 4.292969-.558594 5.570313 1.210937 1.273437 1.765626 1.015625 4.207032-.601563 5.664063l-27.835937 24.746094 34.585937-19.976563c1.925782-1.101562 4.375-.542968 5.636719 1.285156 1.257813 1.828126.902344 4.316407-.816406 5.722657l-28.484375 23.039062 34.074219-19.625c1.949219-1.136719 4.445312-.554687 5.695312 1.324219s.820313 4.40625-.976562 5.765625l-27.640625 21.007813 32.367187-18.6875c1.914063-.996094 4.269531-.40625 5.488281 1.375s.917969 4.191406-.703124 5.613281l-15.800782 12.382812 19.335938-11.167969c1.320312-.84375 3-.890624 4.367187-.125 1.367188.761719 2.207031 2.214844 2.1875 3.78125-.019531 1.566407-.898437 2.996094-2.289062 3.722657l-71.839844 41.488281c-1.941406 1.125-4.421875.554688-5.675781-1.304688-1.253906-1.859374-.855469-4.371093.914062-5.75l15.828125-12.398437-38.230469 22.074219c-.652343.386718-1.394531.59375-2.148437.597656zm0 0" fill="#ffc88b"/><path d="m353.976562 332.28125c-1.632812 0-3.121093-.929688-3.835937-2.394531-.714844-1.46875-.53125-3.214844.472656-4.5l5.597657-7.175781-8.617188 4.972656c-1.851562 1.019531-4.164062.527344-5.445312-1.148438-1.28125-1.679687-1.144532-4.039062.324218-5.558594l16.15625-16.125-21.496094 12.421876c-1.90625 1.097656-4.335937.566406-5.609374-1.226563-1.273438-1.796875-.972657-4.265625.695312-5.703125l21.816406-18.773438-27.023437 15.601563c-1.929688 1.09375-4.378907.527344-5.628907-1.304687-1.253906-1.832032-.890624-4.320313.832032-5.71875l25.601562-20.414063-30.574218 17.65625c-1.972657 1.125-4.476563.511719-5.703126-1.398437-1.226562-1.90625-.746093-4.441407 1.09375-5.769532l9.113282-6.492187-11.519532 6.648437c-1.875.980469-4.183593.441406-5.429687-1.269531s-1.046875-4.078125.464844-5.558594l30.898437-27.511719-38.246094 21.980469c-1.871093 1.082031-4.257812.59375-5.550781-1.136719-1.296875-1.730468-1.09375-4.15625.472657-5.644531l19.148437-18.246093-24.789063 14.3125c-1.75 1.007812-3.96875.648437-5.3125-.855469-1.34375-1.507813-1.449218-3.75-.25-5.375l11.550782-15.652344-17.671875 10.242187c-1.433594.828126-3.214844.753907-4.574219-.195312-1.359375-.945312-2.046875-2.59375-1.765625-4.226562l1.953125-11.390626-7.242188 4.179688c-1.015624.585938-2.222656.726562-3.347656.394531-1.109375-.339843-2.035156-1.121093-2.558594-2.160156l-2.464843-4.871094c-2.050781.417969-4.105469-.710937-4.847657-2.667969-.738281-1.957031.046876-4.164062 1.859376-5.207031l2.722656-1.570312c1.019531-.597657 2.238281-.75 3.371094-.414063 1.128906.335938 2.074218 1.125 2.601562 2.179688l2.363281 4.675781 11.230469-6.484375c1.433594-.832031 3.21875-.753906 4.578125.191406 1.355469.949219 2.046875 2.59375 1.761719 4.226563l-1.953125 11.402343 27.433593-15.941406c1.75-1.015625 3.976563-.664062 5.324219.84375 1.351563 1.507813 1.453125 3.757813.25 5.386719l-11.546875 15.648437 38.007813-21.945312c1.871093-1.082031 4.257812-.59375 5.550781 1.136719 1.296875 1.730469 1.09375 4.15625-.472656 5.644531l-19.191406 18.261719 43.519531-25.085938c1.894531-1.09375 4.308593-.578125 5.589843 1.191407 1.28125 1.773437 1.015626 4.226562-.613281 5.683593l-30.902343 27.496094 52.90625-30.515625c1.972656-1.125 4.476562-.507812 5.703124 1.398438 1.226563 1.910156.746094 4.445312-1.09375 5.769531l-9.148437 6.511719 2.46875-1.417969c1.929687-1.101563 4.386719-.53125 5.640625 1.304687 1.25 1.839844.878906 4.332032-.855469 5.726563l-25.597656 20.414062 16.945313-9.78125c1.90625-1.09375 4.328124-.5625 5.601562 1.226563 1.273438 1.789062.980469 4.253906-.679688 5.695312l-21.816406 18.773438 10.316406-5.972656c1.847657-1.019532 4.164063-.527344 5.445313 1.148437 1.28125 1.679687 1.140625 4.039063-.328125 5.558594l-16.210938 16.210937c1.789063-.773437 3.875-.234375 5.066407 1.304688 1.191406 1.542968 1.191406 3.695312-.007813 5.234375l-13.96875 17.917969c.652344 1.925781-.144531 4.042968-1.902344 5.0625l-4.445312 2.558593c-.667969.402344-1.433594.613281-2.210938.605469zm0 0" fill="#ffc88b"/><g fill="#262626"><path d="m361.121094 327.402344-102.914063-102.914063-8.226562 5.640625h100.863281c7.785156 0 37.085938-4.839844 43.519531 0-.226562-.160156-9.84375 35.054688-11.398437 39.695313-7.523438 21.78125-18.816406 42.066406-33.367188 59.929687-3.199218 4.046875 9.089844 2.988282 11.453125 0 23.953125-29.773437 38.90625-65.769531 43.101563-103.753906.238281-2.023438-2.140625-2.449219-3.695313-2.449219h-145.542969c-1.707031 0-11.332031 2.558594-8.226562 5.648438l102.910156 102.910156c2.867188 2.851563 14.535156-1.6875 11.523438-4.707031zm0 0"/><path d="m234.5625 394.832031v-145.578125l-11.949219 4.007813 65.511719 65.484375c7.910156 7.910156 29.867188 22.777344 33.382812 33.382812.410157 1.238282 2.894532 1.9375 3.199219 3.203125.121094.476563-25.71875 16.570313-19.789062 13.003907-23.101563 13.691406-48.90625 22.207031-75.621094 24.949218-5.804687.675782-10.4375 7.367188-1.828125 6.367188 39.785156-4.367188 77.503906-19.980469 108.734375-45.011719.921875-.726563 1.910156-2.125.851563-3.191406l-102.910157-102.914063c-2.699219-2.6875-11.949219-.078125-11.949219 4.011719v145.5625c.011719 3.464844 12.367188 1.261719 12.367188-3.277344zm0 0"/><path d="m363.167969 52.183594c-8.097657 8.003906-16.121094 16.078125-24.148438 24.148437-.855469.855469-1.945312 2.023438-.855469 3.191407 30.011719 31.34375 48.847657 71.710937 53.597657 114.84375l8.644531-4.949219h-117.886719c-29.140625 0-49.765625-6.488281-70.589843 13.96875-27.980469 27.492187-23.890626 32.910156-23.890626 72.863281v121.804688l10.007813-4.835938c-42.734375-4.679688-82.714844-23.386719-113.699219-53.1875-2.449218-2.28125-8.589844-.554688-10.664062 1.515625-8.039063 8.027344-16.0625 16.078125-24.066406 24.152344-.785157.792969-2.011719 2.089843-.851563 3.191406 84.667969 81.195313 216.496094 86.789063 307.738281 13.054687 102.679688-84.480468 107.117188-235.902343 17.296875-331.28125-2.765625-2.925781-14.507812 1.546876-11.519531 4.710938 105.265625 111.785156 74.238281 303.078125-74.964844 359.390625-48.375 17.957031-101.617187 17.761719-149.855468-.546875-20.761719-7.917969-76.902344-33.21875-71.832032-53.101562 4.289063-5.929688 9.492188-11.140626 15.417969-15.4375-6.261719 0 22.484375 23.945312 23.152344 24.378906 26.058593 16.371094 55.558593 26.476562 86.183593 29.527344 3.03125.363281 10.011719-.753907 10.011719-4.839844v-97.492188c0-19.550781-1.859375-40.109375 0-59.589844 1.519531-15.761718 2.183594-13.515624 15.792969-27.09375 2.851562-2.839843 17.851562-17.441406 13.074219-15.214843-5.1875 2.421875 3.703125.691406 7.023437.640625 19.164063-.257813 38.355469 0 57.523438 0h101.632812c2.449219 0 9.078125-1.367188 8.644532-4.941406-3.3125-32.671876-14.789063-63.984376-33.375-91.058594-3.585938-5.121094-14.4375-14.164063-15.734376-19.984375-2.195312-9.773438-1.453124-3.6875 4.375-12.613281 4.089844-4.9375 8.640626-9.472657 13.59375-13.542969 5.027344-4.933594-7.074218-4.351563-9.777343-1.671875zm0 0"/><path d="m224.347656 195.132812h169.148438c3.410156.273438 10.90625-1.707031 10.621094-4.078124-4.691407-43.628907-23.824219-84.441407-54.355469-115.960938-1.929688-2.027344-9.769531.964844-11.417969 2.613281l-115.542969 115.539063c-1.347656 1.351562.207031 1.886718 1.546875 1.886718zm117.757813-111.28125c26.941406 29.5625 44.0625 66.746094 49.007812 106.433594h-126.976562c-2.875 0-29.773438 2.476563-31.375 0-.367188-.570312 82.140625-79.90625 109.378906-106.433594zm0 0"/><path d="m192.175781 401.144531c2.902344.332031 8.355469-1.320312 8.355469-5.117187v-168.714844c.523438-.945312.316406-2.128906-.496094-2.839844-1.960937-3.765625-9.589844-2.867187-11.570312.894532l-115.074219 114.988281c-.738281.808593-1.105469 1.890625-1.011719 2.980469.097656 1.09375.648438 2.09375 1.515625 2.761718 32.191407 31.019532 73.820313 50.394532 118.28125 55.046875zm-71.183593-93.867187 66.976562-66.925782v150.160157c-24.902344-3.382813-48.855469-11.804688-70.398438-24.746094-6.785156-4.171875-32.480468-20.53125-32.15625-22.945313 1.265626-9.207031 29.21875-29.191406 35.578126-35.515624zm0 0"/><path d="m411.125 2.929688c-16.070312 16.109374-32.128906 32.210937-48.171875 48.296874-1.253906 1.175782-1.464844 3.085938-.503906 4.507813 75.691406 80.398437 87.125 205.414063 15.011719 292.5625-81.332032 98.304687-225.773438 101.675781-317.253907 15.523437-3.269531-2.648437-8.050781-2.242187-10.828125.921876-16.070312 16.089843-32.148437 32.160156-48.238281 48.214843-1.015625 1.003907-1.707031 3.335938-.503906 4.503907 87.777343 85.894531 218.902343 109.917968 331.425781 60.714843 105.671875-48.027343 174.046875-152.820312 175.4375-268.886719-1.082031-77.464843-31.675781-151.601562-85.546875-207.28125-3.265625-2.664062-8.058594-2.253906-10.828125.921876zm-136.917969 485.375c-77.152343 17.058593-157.925781 1.296874-223-43.519532-10.839843-7.492187-37.410156-23.722656-35.363281-32.640625 1.023438-4.472656 11.945312-11.945312 14.984375-14.941406 7.765625-7.742187 15.523437-15.492187 23.277344-23.253906 102.34375 90.839843 263.316406 78.925781 344.109375-35.710938 41.277344-59.117187 51.949218-134.351562 28.738281-202.617187-5.898437-17.113282-13.859375-33.445313-23.703125-48.640625-5.667969-8.8125-15.949219-17.40625-20.199219-26.792969-5.683593-12.527344-6.828125-2.191406.128907-15.359375 6.082031-11.546875 20.8125-22.742187 31.929687-32.511719 50.144531 53.839844 78.578125 124.339844 79.820313 197.90625-2.652344 131.351563-90.214844 248.855469-220.722657 278.082032zm0 0"/><path d="m227.574219 400.042969c39.789062-4.386719 77.5-20.039063 108.703125-45.113281.269531-.234376.507812-.5.710937-.792969.054688-.058594.105469-.117188.152344-.179688.253906-.285156.398437-.652343.410156-1.035156.03125-.160156.03125-.324219 0-.484375l-.042969-.101562c-.046874-.363282-.203124-.703126-.453124-.972657l-102.953126-102.914062c-2.363281-2.355469-11.949218-.921875-11.949218 3.199219v145.605468c.042968 2.738282 3.21875 3.046875 5.421875 2.789063zm7.003906-134.757813 89.25 89.300782c-25.929687 20.148437-56.714844 33.097656-89.25 37.546874zm0 0"/><path d="m402.683594 224.234375c-.808594-.210937-1.648438-.285156-2.480469-.222656h-145.171875c-1.484375 0-10.996094 2.421875-8.378906 5.042969l102.914062 102.910156c2.269532 2.28125 9.71875-.296875 11.441406-2.472656 23.953126-29.734376 38.917969-65.683594 43.144532-103.628907.039062-.609375-.335938-1.171875-.914063-1.367187-.167969-.117188-.355469-.207032-.554687-.261719zm-139.398438 5.441406h128.339844c-3.894531 33.355469-16.289062 65.152344-36 92.339844zm0 0"/><path d="m472.691406 224.933594c.355469-5.605469.535156-11.21875.546875-16.835938 0-1.707031-12.347656-.0625-12.355469 3.308594 0 5.621094-.183593 11.234375-.554687 16.835938-.09375 1.476562 12.152344.179687 12.363281-3.308594zm0 0"/><path d="m261.160156 456.296875c-7.679687 1.75-5.453125 9.976563 2.203125 8.242187 102.359375-22.191406 182.394531-102.015624 204.847657-204.320312 1.332031-5.878906-11.296876-4.351562-12.507813 1.003906-21.09375 97.488282-97.113281 173.714844-194.542969 195.074219zm0 0"/><path d="m230.6875 462.023438c-5.609375.347656-11.21875.527343-16.828125.546874-3.058594-.132812-6.035156 1.007813-8.226563 3.148438-1.476562 2.3125 1.28125 2.753906 3.117188 2.753906 5.613281 0 11.226562-.183594 16.835938-.554687 2.464843-.144531 6.75-.851563 8.214843-3.140625 1.46875-2.285156-1.234375-2.875-3.113281-2.753906zm0 0"/></g></svg>