<svg height="503pt" viewBox="-100 0 503 503.66004" width="503pt" xmlns="http://www.w3.org/2000/svg"><path d="m139.867188 502.542969c-1.863282 0-3.511719-1.210938-4.070313-2.988281-.558594-1.777344.101563-3.710938 1.628906-4.777344l68.019531-47.566406-88.746093 51.199218c-2 1.117188-4.523438.457032-5.71875-1.492187-1.195313-1.953125-.636719-4.503907 1.265625-5.777344l42.664062-27.730469-53.519531 30.898438c-2 1.082031-4.5.40625-5.679687-1.539063-1.183594-1.945312-.625-4.476562 1.257812-5.75l24.304688-15.445312-30.960938 17.878906c-1.988281 1.113281-4.5.46875-5.707031-1.46875-1.203125-1.933594-.675781-4.476563 1.203125-5.769531l101.546875-68.027344-114.347657 66.023438c-2.015624 1.160156-4.589843.496093-5.789062-1.5-1.195312-1.992188-.578125-4.578126 1.394531-5.8125l28.050781-17.589844-32.625 18.824218c-2 1.167969-4.566406.519532-5.78125-1.453124-1.210937-1.976563-.625-4.558594 1.320313-5.816407l103.125-67.34375-110.371094 63.753907c-2.003906 1.085937-4.511719.402343-5.6875-1.554688-1.175781-1.953125-.605469-4.488281 1.292969-5.75l48.203125-30.242188-51 29.445313c-1.992187 1.085937-4.484375.421875-5.671875-1.507813-1.191406-1.929687-.664062-4.453124 1.199219-5.742187l122.71875-80.351563-128.214844 74.007813c-1.996094 1.085937-4.492187.414063-5.675781-1.523437s-.644532-4.460938 1.230468-5.746094l112.347657-72.5-115.199219 66.503906c-2.015625 1.222656-4.640625.582031-5.867188-1.429688-1.222656-2.015624-.585937-4.644531 1.429688-5.867187l101.078125-64.53125-102.058594 58.882813c-2 1.070312-4.492187.382812-5.664062-1.558594-1.171875-1.945313-.617188-4.464844 1.261719-5.738282l72.480468-45.578124-72.046875 41.652343c-2.011719 1.089844-4.523437.398438-5.695312-1.566406-1.175781-1.964844-.585938-4.503906 1.328125-5.753906l26.453125-16.359375-24.644531 14.191406c-2.011719 1.125-4.550782.453125-5.738282-1.519531-1.191406-1.972657-.601562-4.535157 1.335938-5.785157l70.390625-44.21875-68.769531 39.703126c-2.011719 1.089843-4.527344.402343-5.699219-1.5625-1.171875-1.964844-.585938-4.507813 1.328125-5.757813l26.402344-16.351563-23.765626 13.722657c-2.015624 1.160156-4.589843.496093-5.789062-1.5-1.195312-1.992188-.578125-4.578125 1.394531-5.8125l59.734375-37.417969-56.671875 32.714844c-1.992187 1.097656-4.5.4375-5.691406-1.503906-1.191406-1.9375-.652344-4.472657 1.230469-5.757813l124.425781-81.40625-120.613281 69.648437c-2.003906 1.085938-4.511719.402344-5.6875-1.550781-1.175782-1.957031-.605469-4.492187 1.292968-5.753906l36.617188-22.859375-32.382812 18.710938c-2.003907 1.058593-4.484376.363281-5.648438-1.578126-1.164062-1.941406-.613281-4.453124 1.261719-5.726562l31.214843-19.488281-26.453124 15.25c-2.003907 1.117187-4.535157.453125-5.726563-1.511719-1.195313-1.960938-.621094-4.515625 1.296875-5.777344l72.03125-46.082031-66.175781 38.207031c-2.003907 1.070313-4.492188.382813-5.664063-1.558594-1.171875-1.945312-.621094-4.464843 1.261719-5.738281l34.261719-21.589843-28.671875 16.554687c-2.007813 1.101563-4.523438.425781-5.707031-1.53125-1.1875-1.957031-.613282-4.5 1.292968-5.765625l24.03125-15.101562-17.808594 10.238281c-2 1.117187-4.523437.457031-5.71875-1.496094-1.199218-1.953125-.640624-4.5 1.261719-5.773437l57.601563-37.324219-50.058594 28.890625c-1.988281 1.101562-4.488281.445312-5.6875-1.488282-1.195312-1.929687-.667969-4.460937 1.199219-5.753906l63.515625-42.105468-54.28125 31.359374c-1.984375 1.117188-4.496094.480469-5.703125-1.449218-1.210938-1.929688-.695313-4.464844 1.171875-5.769532l60.9375-41.523437-49.433594 28.535156c-1.957031 1.097657-4.429688.492188-5.65625-1.386719-1.230469-1.875-.792969-4.382812.996094-5.738281l58.523437-43.082031-39.160156 22.585938c-1.941406 1.125-4.421875.554687-5.675781-1.304688s-.855469-4.371094.914062-5.75l27.246094-21.273438c-.949219-.335937-1.742188-1.003906-2.234375-1.878906-1.171875-2.039062-.476563-4.640625 1.558594-5.820312l40.6875-23.492188c1.941406-1.125 4.421875-.554687 5.675781 1.304688s.855469 4.375-.914062 5.753906l-18.617188 14.515625 52.835938-30.5c1.957031-1.097656 4.429687-.492187 5.65625 1.386719 1.230468 1.878906.792968 4.386718-.996094 5.738281l-58.53125 43.085937 81.921875-47.292968c1.976562-1.074219 4.449219-.425782 5.648437 1.480468 1.199219 1.90625.707032 4.414063-1.117187 5.730469l-60.902344 41.507813 74.84375-43.214844c2-1.15625 4.554687-.515625 5.769531 1.445312 1.214844 1.964844.648438 4.539063-1.28125 5.808594l-63.570312 42.128906 74.347656-42.921874c2.003906-1.140626 4.550781-.484376 5.753906 1.484374 1.203125 1.964844.621094 4.53125-1.304687 5.792969l-57.628907 37.351563 65.417969-37.769532c2.003907-1.101562 4.523438-.425781 5.707031 1.53125 1.183594 1.957032.613282 4.503907-1.296874 5.765626l-24.003907 15.113281 28.433594-16.410157c2.007813-1.101562 4.523437-.425781 5.707031 1.53125 1.183594 1.957032.613282 4.5-1.292968 5.765626l-34.132813 21.503906 37.921875-21.898438c2.007812-1.175781 4.589844-.527344 5.800781 1.464844 1.210938 1.988281.601563 4.578125-1.363281 5.824219l-72.109375 46.078125 77.160156-44.535156c2.003907-1.054688 4.480469-.363282 5.648438 1.578124 1.164062 1.941407.609375 4.457032-1.261719 5.726563l-31.164062 19.464844 33.183593-19.15625c2.011719-1.109375 4.539063-.425781 5.71875 1.542969 1.179688 1.96875.59375 4.515624-1.332031 5.769531l-36.589844 22.835937 38.535156-22.238281c1.988282-1.058594 4.457032-.386719 5.636719 1.53125 1.179688 1.917969.667969 4.421875-1.171875 5.722656l-124.433594 81.476563 128.9375-74.4375c2.007813-1.085938 4.511719-.402344 5.6875 1.550781 1.179688 1.957031.609376 4.492187-1.292968 5.753906l-59.730469 37.445313 59.945313-34.636719c2.011718-1.09375 4.523437-.402344 5.695312 1.5625 1.175781 1.964844.589844 4.503906-1.328125 5.757813l-26.453125 16.382812 26.0625-15.042969c1.304688-.785156 2.933594-.816406 4.265625-.078125 1.335937.738282 2.175781 2.132813 2.203125 3.65625.027344 1.523438-.757812 2.949219-2.066406 3.734375l-70.261719 44.132813 69.605469-40.191406c2.015625-1.132813 4.570312-.457032 5.753906 1.527343 1.1875 1.988281.578125 4.558594-1.375 5.796875l-26.457031 16.367188 24.875-14.363282c2.019531-1.21875 4.640625-.570312 5.859375 1.445313 1.21875 2.019531.570312 4.640625-1.445313 5.859375l-72.628906 45.652344 71.347656-41.179688c1.304688-.792968 2.929688-.832031 4.269531-.097656 1.335938.730469 2.183594 2.121094 2.21875 3.648438.035157 1.523437-.746093 2.953124-2.050781 3.742187l-101.050781 64.515625 99.472656-57.421875c2-1.117187 4.523438-.457031 5.71875 1.496094 1.195313 1.953125.636719 4.5-1.265625 5.773437l-112.273437 72.457032 110.398437-63.726563c1.988281-1.058594 4.453125-.386719 5.636719 1.53125 1.179688 1.917969.664062 4.421875-1.175781 5.722656l-122.769531 80.355469 119.988281-69.273438c2.011719-1.125 4.550781-.453124 5.738281 1.519532 1.191406 1.972656.597656 4.535156-1.335938 5.785156l-48.273437 30.292969 44.964844-25.957031c2.007812-1.234376 4.636719-.609376 5.871093 1.398437 1.234376 2.007813.605469 4.636719-1.402343 5.871094l-103.132813 67.3125 98.707032-56.996094c2.007812-1.125 4.546874-.453125 5.738281 1.519531 1.1875 1.972656.597656 4.535156-1.335938 5.785156l-28.253906 17.726563 23.695313-13.65625c1.992187-1.152344 4.542968-.519531 5.761718 1.433594s.667969 4.523437-1.246094 5.804687l-101.460937 67.976563 95.238281-54.980469c2.003906-1.085938 4.503906-.40625 5.683594 1.539062 1.179688 1.945313.625 4.476563-1.261719 5.75l-24.242187 15.359376 17.875-10.316407c2-1.117187 4.523437-.457031 5.71875 1.492188 1.199218 1.953125.640625 4.503906-1.261719 5.777343l-42.667969 27.75 34.566406-19.960937c1.980469-1.132813 4.503907-.511719 5.726563 1.414063 1.222656 1.921874.714844 4.46875-1.152344 5.78125l-68.042969 47.582031 55.773438-32.214844c1.976562-1.105469 4.472656-.472656 5.683594 1.4375 1.214844 1.914063.722656 4.4375-1.117188 5.757813l-33.5625 23.328124 19.105469-11.023437c1.917969-1.125 4.378906-.585937 5.652344 1.238281 1.273437 1.820313.933593 4.316406-.777344 5.734375l-28.597656 23.890625c1.3125.164063 2.472656.941406 3.125 2.09375 1.171875 2.035156.476562 4.636719-1.554688 5.816406l-36.222656 20.925782c-1.917969 1.121094-4.378906.582031-5.652344-1.238282-1.273437-1.824218-.933593-4.316406.777344-5.734374l24.585937-20.480469-64.160156 37c-1.980468 1.136719-4.503906.515625-5.726562-1.410157-1.222656-1.925781-.714844-4.472656 1.152344-5.78125l33.628906-23.382812-53.027344 30.609375c-.644531.382813-1.382812.585937-2.132812.589844zm0 0" fill="#fab153"/><path d="m98.046875 143.441406c-1.75 0-3.320313-1.0625-3.964844-2.6875-.648437-1.621094-.242187-3.472656 1.027344-4.675781l18.824219-17.785156-18.839844 10.875c-1.90625 1.074219-4.3125.539062-5.582031-1.246094-1.265625-1.78125-.976563-4.234375.664062-5.675781l10.738281-9.234375-10.914062 6.296875c-1.914062 1.113281-4.363281.578125-5.636719-1.234375-1.273437-1.808594-.949219-4.292969.746094-5.71875l8.449219-7.140625-8.851563 5.117187c-1.902343 1.09375-4.328125.566407-5.601562-1.226562-1.273438-1.789063-.980469-4.253907.679687-5.691407l8.78125-7.578124-9.875 5.699218c-1.828125 1.046875-4.144531.605469-5.457031-1.042968-1.3125-1.648438-1.226563-4.003907.199219-5.554688l16.667968-17.976562-21.539062 12.429687c-1.78125 1.039063-4.050781.652344-5.386719-.914063-1.339843-1.570312-1.367187-3.867187-.066406-5.46875l13.296875-16.367187-18.867188 10.890625c-1.78125 1.027344-4.035156.640625-5.375-.917969-1.335937-1.558593-1.375-3.847656-.085937-5.449219l6.464844-8.054687-9.582031 5.53125c-2.035157 1.179687-4.644532.488281-5.828126-1.546875l-6.417968-11.09375-.28125.15625c-1.316406.882812-3.019532.964844-4.414063.203125-1.394531-.757813-2.253906-2.230469-2.226562-3.816406.023437-1.589844.929687-3.03125 2.347656-3.742188l3.976563-2.296875c2.035156-1.175781 4.636718-.484375 5.820312 1.542969l6.417969 11.09375 25.601562-14.777344c1.777344-1.027343 4.035157-.644531 5.371094.914063s1.375 3.847656.089844 5.449218l-6.476563 8.058594 19.164063-11.09375c1.78125-1.039062 4.050781-.652344 5.390625.914063 1.335937 1.570312 1.363281 3.867187.0625 5.46875l-13.269532 16.382812 26.054688-15.027343c1.824219-1.035157 4.128906-.589844 5.4375 1.050781s1.230469 3.988281-.183594 5.535156l-16.65625 17.921875 24.507813-14.070312c1.90625-1.117188 4.351562-.59375 5.632812 1.210937 1.28125 1.800781.972657 4.28125-.710937 5.71875l-8.8125 7.574219 10.957031-6.320313c1.914063-1.132812 4.378906-.605469 5.660156 1.214844s.949219 4.316406-.761719 5.738281l-8.476562 7.167969 9.226562-5.324219c1.90625-1.09375 4.328126-.5625 5.601563 1.226563 1.273437 1.789062.980469 4.253906-.679687 5.695312l-10.726563 9.214844 10.832031-6.246094c1.882813-1.167969 4.347656-.695312 5.667969 1.085938 1.320313 1.777343 1.0625 4.273437-.601563 5.738281l-18.839843 17.800781 18.40625-10.632812c1.597656-.921875 3.613281-.710938 4.988281.523437 1.371094 1.238282 1.792969 3.214844 1.042969 4.90625l-4.992188 11.261719 1.84375-1.058594c1.324219-.839843 3-.886719 4.367188-.125 1.371093.765625 2.210937 2.21875 2.1875 3.785157-.019531 1.566406-.898438 2.996093-2.289063 3.722656l-13.183594 7.605468c-1.597656.917969-3.605468.707032-4.976562-.523437-1.375-1.234375-1.800781-3.210937-1.054688-4.898437l4.992188-11.261719-38.570312 22.269531c-.65625.355469-1.390626.53125-2.132813.503906zm0 0" fill="#9ed26a"/><path d="m70.859375 163.71875c-1.726563 0-3.285156-1.042969-3.941406-2.636719-.660157-1.597656-.292969-3.433593.929687-4.652343l2.15625-2.160157-.699218.394531c-1.867188 1.125-4.285157.660157-5.601563-1.082031-1.316406-1.738281-1.109375-4.191406.480469-5.683593l.582031-.566407c-1.84375.738281-3.953125.105469-5.085937-1.527343-1.132813-1.628907-.992188-3.824219.339843-5.296876l6.152344-6.785156-7.191406 4.15625c-1.851563 1.03125-4.179688.542969-5.464844-1.144531-1.285156-1.683594-1.140625-4.058594.34375-5.570313l2.789063-2.78125-4.375 2.558594c-1.667969.953125-3.761719.675782-5.125-.675781-1.359376-1.351563-1.652344-3.445313-.710938-5.117187l6.902344-12.152344-13.714844 7.910156c-1.023438.59375-2.253906.730469-3.386719.382812-1.132812-.347656-2.070312-1.152343-2.585937-2.21875l-2.3125-4.804687-2.039063 1.1875c-1.320312.761719-2.949219.761719-4.269531-.003906-1.320312-.761719-2.132812-2.171875-2.132812-3.699219 0-1.523438.8125-2.933594 2.136718-3.695312l6.023438-3.480469c1.035156-.597657 2.273437-.734375 3.414062-.375 1.125.355469 2.050782 1.160156 2.558594 2.226562l2.3125 4.792969 23.339844-13.472656c1.664062-.960938 3.765625-.6875 5.132812.667968 1.367188 1.351563 1.65625 3.453126.710938 5.125l-6.910156 12.160157 19.25-11.09375c1.851562-1.027344 4.179687-.542969 5.464843 1.144531 1.285157 1.683594 1.140625 4.058594-.34375 5.574219l-2.78125 2.773437 2.328125-1.351562c1.820313-1.046875 4.132813-.613282 5.449219 1.023437 1.320313 1.632813 1.25 3.984375-.15625 5.539063l-6.144531 6.777344 5.972656-3.414063c1.867188-1.125 4.285156-.660156 5.601562 1.082031 1.316407 1.738282 1.109376 4.191406-.480468 5.683594l-.914063.855469c1.863281-.492188 3.824219.328125 4.785157 2 .960937 1.671875.679687 3.777343-.679688 5.140625l-2.167969 2.167968.152344-.085937c2.027344-1.058594 4.527344-.332031 5.671875 1.648437 1.144531 1.976563.523438 4.507813-1.40625 5.734376l-28.226562 16.246093c-.648438.378907-1.382813.578125-2.132813.574219zm0 0" fill="#b4df80"/><path d="m223.65625 160.089844c-1.734375-.003906-3.292969-1.054688-3.945312-2.660156-.652344-1.609376-.265626-3.449219.976562-4.660157l4.992188-4.863281-9.824219 5.671875c-1.949219 1.121094-4.433594.53125-5.675781-1.34375-1.242188-1.875-.816407-4.394531.976562-5.753906l.460938-.359375-5.011719 2.894531c-1.867188 1.050781-4.222657.550781-5.507813-1.164063-1.285156-1.714843-1.09375-4.117187.441406-5.613281l18.464844-17.621093-6.765625 3.902343c-1.75 1.007813-3.96875.648438-5.3125-.855469-1.347656-1.507812-1.449219-3.75-.253906-5.375l11.582031-15.609374c-.070312-.082032-.128906-.175782-.179687-.273438-1.171875-2.039062-.472657-4.640625 1.5625-5.816406l6.261719-3.621094c1.75-1.007812 3.96875-.648438 5.3125.855469 1.34375 1.507812 1.449218 3.75.25 5.375l-5.664063 7.679687 19.78125-11.417968c1.867187-1.066407 4.234375-.574219 5.527344 1.148437 1.289062 1.722656 1.09375 4.132813-.453125 5.628906l-18.449219 17.613281 33.792969-19.515624c1.949218-1.109376 4.425781-.523438 5.664062 1.34375 1.242188 1.871093.824219 4.378906-.953125 5.746093l-16.128906 12.203125c.382813.253906.71875.570313.992187.9375 1.296876 1.714844 1.113282 4.132813-.429687 5.632813l-15.417969 15c.148438.183593.28125.375.394532.582031 1.171874 2.035156.476562 4.636719-1.554688 5.820312l-13.773438 7.953126c-.648437.367187-1.386718.550781-2.132812.535156zm0 0" fill="#b4df80"/><path d="m201 147.941406c-1.488281 0-2.871094-.777344-3.644531-2.050781-.773438-1.273437-.828125-2.859375-.144531-4.179687l1.484374-2.859376-7.183593 4.148438c-1.828125 1.046875-4.152344.601562-5.460938-1.050781-1.3125-1.648438-1.222656-4.011719.210938-5.554688l12.945312-13.808593-26.828125 15.480468c-1.953125 1.101563-4.425781.503906-5.660156-1.367187-1.234375-1.871094-.808594-4.382813.976562-5.742188l11.253907-8.402343-23.320313 13.464843c-1.980468 1.132813-4.5.511719-5.726562-1.414062-1.222656-1.921875-.714844-4.46875 1.152344-5.78125l34.132812-23.789063-29.628906 17.152344c-1.9375 1.121094-4.417969.550781-5.671875-1.308594-1.257813-1.859375-.855469-4.371094.910156-5.75l42.402344-33.109375-31.351563 18.066407c-1.878906 1.074218-4.269531.570312-5.554687-1.175782-1.285157-1.742187-1.058594-4.175781.53125-5.652344l21.238281-19.53125c-1.769531.296876-3.539062-.523437-4.453125-2.066406-1.179687-2.039062-.480469-4.648437 1.558594-5.828125l31.25-18.039062c1.882812-1.078125 4.273437-.574219 5.558593 1.171875 1.285157 1.746094 1.054688 4.179687-.53125 5.652344l-20.394531 18.773437 50.839844-29.351563c1.941406-1.125 4.421875-.554687 5.675781 1.304688s.855469 4.371094-.914062 5.75l-42.417969 33.117188 64.050781-36.972657c1.972656-1.09375 4.457032-.460937 5.667969 1.441407 1.210937 1.902343.730469 4.417968-1.09375 5.742187l-34.6875 24.148437c1.988281-.75 4.230469.078126 5.25 1.945313 1.023437 1.867187.511719 4.203125-1.195313 5.472656l-19.226562 14.34375c1.480469.347657 2.664062 1.460938 3.105469 2.914063.441406 1.457031.074219 3.039062-.964844 4.152344l-15.242187 16.210937c.851562.136719 1.636718.53125 2.253906 1.128906 1.375 1.304688 1.71875 3.359375.855468 5.042969l-4.984374 9.609375.085937.144531c1.179687 2.039063.484375 4.644532-1.554687 5.828125l-3.414063 1.960938c-.644531.390625-1.382813.605469-2.140625.617187zm0 0" fill="#9ed26a"/><path d="m150.753906 125.769531c-1.367187 0-2.652344-.660156-3.453125-1.769531s-1.019531-2.535156-.589843-3.835938l2.261718-6.828124c-1.453125.257812-2.9375-.238282-3.941406-1.320313-1.351562-1.484375-1.488281-3.707031-.324219-5.34375l4.488281-6.3125-2.5625 1.484375c-1.789062 1.03125-4.0625.628906-5.394531-.957031-1.328125-1.582031-1.332031-3.890625-.003906-5.476563l14.863281-17.726562-16.691406 9.636718c-1.8125 1.046876-4.121094.621094-5.445312-1.003906-1.320313-1.625-1.265626-3.972656.128906-5.535156l15.652344-17.476562-20.089844 11.605468c-1.867188 1.125-4.285156.660156-5.601563-1.078125-1.316406-1.742187-1.109375-4.195312.480469-5.6875l12.914062-12.433593-6.539062 3.761718c-1.832031 1.050782-4.15625.601563-5.464844-1.058594-1.308594-1.65625-1.210937-4.019531.234375-5.5625l10.582031-11.175781c-1.628906.46875-3.378906-.070312-4.464843-1.375-1.335938-1.589843-1.335938-3.910156 0-5.496093l5.402343-6.332032c-.429687-.167968-.828124-.398437-1.183593-.691406-1.375-1.128906-1.90625-2.992188-1.332031-4.675781l4.417968-13.023438-.152344-.246093c-.566406-.980469-.714843-2.144532-.421874-3.238282.292968-1.09375 1.011718-2.027344 1.992187-2.589844l2.246094-1.289062c1.535156-.886719 3.460937-.730469 4.835937.394531 1.378906 1.125 1.914063 2.988281 1.339844 4.675781l-2.492188 7.3125 5-2.882812c1.800782-1.042969 4.089844-.632812 5.417969.964844s1.3125 3.921875-.039062 5.5l-2.347657 2.808594 2.558594-1.5c1.835938-1.0625 4.171875-.617188 5.488282 1.050781 1.3125 1.664062 1.203124 4.039062-.257813 5.578125l-10.238281 10.8125 11.441406-6.554688c1.871094-1.125 4.289062-.660156 5.605469 1.082032 1.316406 1.738281 1.109375 4.191406-.484375 5.683593l-12.902344 12.347657 12.800781-7.414063c1.8125-1.035156 4.109375-.609375 5.425781 1.011719 1.320313 1.617187 1.273438 3.953125-.109374 5.515625l-15.597657 17.503906 14.566407-8.421875c1.789062-1.03125 4.0625-.628906 5.394531.953125 1.328125 1.582031 1.332031 3.894531.003906 5.480469l-15.1875 18.125c1.726563-.417969 3.53125.277344 4.527344 1.75 1 1.46875.984375 3.402344-.039063 4.855468l-8.304687 11.707032c1.367187 1.117187 1.90625 2.964844 1.351562 4.640625l-4.269531 12.714843c1.109375 2.03125.390625 4.578126-1.613281 5.734376l-1.765625 1.023437c-.640625.382813-1.371094.585937-2.117188.597656zm0 0" fill="#b4df80"/><path d="m297.035156 270.972656c.371094-.882812.148438-1.90625-.554687-2.558594-4.941407-24.679687-13.804688-48.40625-26.257813-70.28125l.382813-.382812c1.179687-1.230469.121093-1.808594-1.757813-1.945312-8.171875-13.738282-18.4375-26.117188-30.421875-36.695313 7.355469-19.960937 22.1875-39.800781 43.1875-46.625 3.320313-1.085937 4.019531-2.152344 3.414063-2.953125.503906-.640625.410156-1.210938-.664063-1.570312-11.742187-3.976563-23.789062-6.980469-36.019531-8.976563-4.226562-.648437-9.558594-1.75-14.679688-2.082031 12.816407-16.292969 26.957032-31.5 42.277344-45.464844.929688-.855469 1.117188-1.519531 1.015625-2.03125.230469-.71875-.25-1.339844-2.007812-1.707031-34.261719-6.308594-68.445313-1.851563-93.132813 14.984375-3.917968-23.851563-15.898437-45.640625-33.945312-61.722656-1.96875-1.078126-4.308594-1.257813-6.417969-.496094-2.113281.761718-3.796875 2.394531-4.625 4.480468-3.460937 18.148438-8.648437 35.921876-15.496094 53.078126-26.289062-18.210938-59.929687-16.75-90.238281-11.160157-1.929688.347657-7.417969 3.890625-4.632812 6.535157 14.777343 13.492187 28.53125 28.0625 41.144531 43.597656-3.871094.707031-7.617188 1.605468-10.144531 2.023437-11.664063 2.027344-23.160157 4.941407-34.378907 8.71875-1.214843.402344-8.75 4.34375-4.15625 5.835938 21.507813 8.296875 38.203125 25.734375 45.558594 47.582031-11.324219 10.296875-21.09375 22.175781-29.015625 35.269531-2.414062 1.109375-4.109375 2.609375-2.984375 3.78125.152344.160157.316406.316407.46875.46875-12.125 21.527344-20.851563 44.800781-25.871094 68.992188-.828125.703125-1.070312 1.878906-.589843 2.851562v.074219c-3.96875 19.320312-6.03125 38.984375-6.160157 58.710938-.015625 8.8125.453125 17.621093 1.398438 26.382812-.292969.34375-.433594.789062-.390625 1.234375.046875.445313.273437.855469.628906 1.128906 2.3125 22.886719 8.734375 45.164063 18.953125 65.769531-.480469 1.179688-.394531 2.515626.234375 3.625.628906 1.109376 1.730469 1.871094 2.992188 2.066407 11.351562 20.585937 27.777343 37.933593 47.714843 50.386719-.246093 2.03125 1.1875 3.945312 5.121094 3.945312.597656 0 1.238281-.078125 1.84375-.105469 21.777344 11.445313 45.945313 17.585938 70.546875 17.921875.21875 0 .441406-.085937.664062-.101562.304688.050781.613282.085937.921876.101562 25.34375-.339844 50.25-6.660156 72.6875-18.449218 2.910156-.417969 5.539062-1.972657 7.304687-4.328126 20.460937-12.777343 37.304687-30.585937 48.929687-51.726562 2.285157-1.417969 3.726563-3.363281 2.679688-4.820312 12.011719-24.097657 18.8125-50.457032 19.957031-77.355469 1.359375-25.464844-.484375-51-5.484375-76.007813zm-25.027344 149.402344c-11.949218-3.636719-23.777343-7.644531-35.492187-12.03125 17.636719-11.949219 34.679687-24.726562 51.132813-38.339844-2.679688 17.472656-7.953126 34.453125-15.640626 50.371094zm-160.949218 4.828125c-7.96875-4.65625-15.804688-9.539063-23.542969-14.546875 21.753906-8.796875 42.992187-18.816406 63.617187-30.011719 21.085938 11.421875 42.816407 21.609375 65.082032 30.515625-5.503906 3.539063-10.992188 7.105469-16.613282 10.476563-16.128906 9.660156-32.65625 18.476562-49.589843 26.597656-14.898438-8.445313-28.628907-16.996094-38.953125-23.03125zm-95.199219-53.757813c16.128906 13.21875 32.804687 25.683594 50.03125 37.382813-11.3125 4.171875-22.742187 7.984375-34.285156 11.445313-7.644531-15.390626-12.953125-31.835938-15.746094-48.792969zm274.5625-34.476562c-.050781 6.027344-.394531 11.949219-.90625 17.792969-20.273437-7.265625-40.171875-15.550781-59.613281-24.824219 19.617187-14.777344 38.347656-30.699219 56.097656-47.675781 3.089844 18.070312 4.570312 36.378906 4.421875 54.707031zm-70.410156-11.894531c-20.933594-10.425781-41.273438-22.003907-60.925781-34.679688 20.210937-13.308593 39.667968-27.734375 58.28125-43.203125 20.21875 10.691406 41.4375 19.378906 63.351562 25.933594-19.0625 18.640625-39.34375 35.996094-60.707031 51.949219zm-8.371094 6.203125c-19.097656 13.769531-38.976563 26.417968-59.535156 37.890625-21.277344-11.90625-41.824219-25.0625-61.542969-39.398438 20.320312-10.070312 40.097656-21.195312 59.253906-33.332031 19.953125 12.734375 40.589844 24.359375 61.824219 34.816406zm-58.324219-44.671875c-20.542968-13.570313-40.289062-28.3125-59.136718-44.152344 20.027343-11.421875 39.082031-24.476563 56.96875-39.03125 18.625 15.078125 38.53125 28.5 59.496093 40.109375-18.285156 15.425781-37.421875 29.808594-57.328125 43.074219zm-9.199218 6.078125c-18.949219 12.128906-38.53125 23.238281-58.667969 33.277344-21.714844-16.144532-42.332031-33.722657-61.710938-52.605469 20.789063-6.585938 40.933594-15.054688 60.183594-25.304688 19.191406 16.035157 39.296875 30.9375 60.21875 44.632813zm-130.320313 62.726562c-2.125-24.34375-1.261719-48.859375 2.558594-72.992187 18.285156 17.507812 37.625 33.886719 57.90625 49.039062-19.4375 9.226563-39.328125 17.453125-59.605469 24.652344-.289062-.238281-.585938-.460937-.859375-.699219zm5.519531 4.558594c20.480469-7.285156 40.46875-15.53125 59.964844-24.75 19.828125 14.5 40.488281 27.816406 61.882812 39.886719-20.472656 10.921875-41.558593 20.664062-63.144531 29.175781-20.351562-13.695312-39.9375-28.488281-58.675781-44.3125zm142.679688 14.609375c20.597656-11.6875 40.519531-24.523437 59.671875-38.453125 20.164062 9.527344 40.808593 18.003906 61.847656 25.394531-18.25 15.34375-37.304687 29.703125-57.085937 43.015625-22.042969-8.726562-43.558594-18.730468-64.433594-29.957031zm120.71875-108.726563c-19.953125-6.601562-39.269532-14.988281-57.71875-25.050781 12.464844-10.695312 24.546875-21.875 36.25-33.539062 9.734375 18.488281 16.953125 38.191406 21.46875 58.589843zm-25.515625-65.636718c-12.515625 12.867187-25.492188 25.164062-38.9375 36.890625-20.722657-11.800781-40.382813-25.378907-58.757813-40.578125 16.382813-13.964844 31.6875-29.144532 45.789063-45.414063 7.1875 3.695313 14.089843 7.921875 20.648437 12.648438.441406.28125.929688.480469 1.445313.578125 11.816406 10.261718 21.886719 22.378906 29.8125 35.875zm-108.148438-63.417969h1.023438.347656c5.816406 0 11.625.386719 17.390625 1.148437 9.558594 2.097657 18.917969 5 27.980469 8.679688-13.460938 15.617188-28.066407 30.210938-43.699219 43.65625-15.78125-13.621094-30.535156-28.394531-44.132812-44.203125 13.105468-5.292969 26.980468-8.429687 41.089843-9.28125zm120.472657-24.9375c-17.441407 8.613281-31.425782 22.914063-39.648438 40.542969-5.6875-4.171875-11.726562-7.847656-18.046875-10.980469-.234375-1.203125-.261719-2.433594-.085937-3.644531 4.089843-12.121094 9.847656-23.609375 17.109374-34.132813 13.808594 1.316407 27.4375 4.070313 40.671876 8.214844zm-6.476563-58.734375c-15.691406 14.363281-30.0625 30.105469-42.941406 47.035156-3.578125 3.699219-6.507813 7.96875-8.667969 12.640625-4.457031 7.496094-8.203125 15.390625-11.1875 23.585938-13.519531-4.941407-27.75-7.660157-42.136719-8.046875 1.328125-20.390625 9.191407-39.808594 22.425781-55.375 19.710938-20.222656 49.875-25.019532 82.507813-19.839844zm-121.515625-17.570312c1.902344-6.347657 3.558594-12.800782 5.121094-19.277344 12.675781 15.277344 20.808594 33.808594 23.472656 53.480468-7.75 9.0625-13.878906 19.390626-18.125 30.53125-1.066406-3.105468-2.269531-6.152343-3.632812-9.128906-.25-.53125-.53125-1.027344-.785157-1.554687-1.660156-3.4375-3.539062-6.765625-5.625-9.964844-.28125-.445313-.476562-.933594-.765625-1.367187-10.964844-16.324219-4.78125-25.675782.339844-42.71875zm-98.527344 17.5625c26.683594-3.574219 54.84375-1.492188 75.324219 16.964843 14.207031 14.445313 23.371094 33.089844 26.128906 53.160157.050781.359374.128907.726562.171875 1.09375.171875 1.347656.222656 2.714843.332032 4.070312-13.976563.644531-27.765626 3.488281-40.855469 8.421875-3.789063-12.59375-11.359375-32.597656-20.617188-38.792969-12.109375-16.164062-25.660156-31.199218-40.484375-44.917968zm-8.421875 57.011718c12.46875-4.351562 29.015625-9.480468 37.933594-5.121094.746094.453126 1.457031.96875 2.113281 1.546876 7.519532 10.941406 13.390625 22.925781 17.425782 35.574218-6.027344 3.085938-11.792969 6.652344-17.246094 10.667969-7.722656-18.675781-22.039063-33.859375-40.226563-42.667969zm40.535157 53.050782c.449218-.21875.878906-.472657 1.289062-.757813 6.3125-4.535156 12.96875-8.570313 19.90625-12.074219 14.519531 16.871094 30.355469 32.566406 47.359375 46.929688-17.796875 14.582031-36.808594 27.613281-56.820313 38.964844-14.167968-12.257813-27.820312-25.164063-40.960937-38.714844 7.808594-12.972656 17.683594-24.582032 29.226563-34.382813zm1.492187 78.675781c-18.273437 9.628906-37.390625 17.558593-57.113281 23.691406 4.253906-20.074219 11.167968-39.492187 20.558594-57.738281 11.792968 11.84375 23.976562 23.195312 36.554687 34.046875zm-40.378906 186.882812c13.265625-4.035156 26.382812-8.515625 39.347656-13.449219 12.464844 8.132813 25.121094 15.992188 38.175781 23.21875 7.425782 4.113282 16.308594 9.34375 25.941406 14.796876-15.964843 7.773437-38.210937 20.640624-55.578124 23.277343-19.902344-11.433593-36.421876-27.933593-47.886719-47.820312zm114.507812 30.71875c17.800781 10.386719 36.894531 18.386719 56.78125 23.792969-17.273437 7.355469-35.792969 11.351562-54.5625 11.765625-19.371093-.421875-38.488281-4.535156-56.320312-12.117187 18.863281-5.75 37.015625-13.609376 54.117187-23.425782zm69.042969 17.714844c-20.875-4.394531-40.890625-12.179687-59.253906-23.039063 10.050781-5.648437 19.25-11.09375 26.734375-15.199218 13.378906-7.414063 26.351562-15.460938 39.140625-23.796875 13.5 5.117187 27.171875 9.75 41.011718 13.890625-11.257812 20.042968-27.710937 36.675781-47.632812 48.144531zm0 0" fill="#262626"/></svg>